<mxfile host="app.diagrams.net" modified="2021-08-23T09:39:33.162Z" agent="5.0 (X11)" etag="wZWcQw-KTVMFqbTg61h6" version="14.9.8" type="github">
  <diagram id="6GDA_t1yTOq-y9JTJysY" name="Page-1">
    <mxGraphModel dx="1355" dy="752" grid="1" gridSize="10" guides="1" tooltips="1" connect="1" arrows="1" fold="1" page="1" pageScale="1" pageWidth="850" pageHeight="1100" math="0" shadow="0">
      <root>
        <mxCell id="0" />
        <mxCell id="1" parent="0" />
        <mxCell id="5eeW4vbxQjaqD8028NrK-1" value="" style="ellipse;whiteSpace=wrap;html=1;" vertex="1" parent="1">
          <mxGeometry x="40" y="200" width="130" height="10" as="geometry" />
        </mxCell>
        <mxCell id="5eeW4vbxQjaqD8028NrK-2" value="" style="shape=flexArrow;endArrow=classic;html=1;exitX=0.292;exitY=1.2;exitDx=0;exitDy=0;exitPerimeter=0;" edge="1" parent="1" source="5eeW4vbxQjaqD8028NrK-1">
          <mxGeometry width="50" height="50" relative="1" as="geometry">
            <mxPoint x="80" y="220" as="sourcePoint" />
            <mxPoint x="80" y="260" as="targetPoint" />
          </mxGeometry>
        </mxCell>
        <mxCell id="5eeW4vbxQjaqD8028NrK-3" value="" style="shape=flexArrow;endArrow=classic;html=1;exitX=0.669;exitY=1.4;exitDx=0;exitDy=0;exitPerimeter=0;" edge="1" parent="1" source="5eeW4vbxQjaqD8028NrK-1">
          <mxGeometry width="50" height="50" relative="1" as="geometry">
            <mxPoint x="90" y="220" as="sourcePoint" />
            <mxPoint x="127" y="260" as="targetPoint" />
          </mxGeometry>
        </mxCell>
        <mxCell id="5eeW4vbxQjaqD8028NrK-4" value="left" style="text;html=1;strokeColor=none;fillColor=none;align=center;verticalAlign=middle;whiteSpace=wrap;rounded=0;" vertex="1" parent="1">
          <mxGeometry x="60" y="260" width="40" height="20" as="geometry" />
        </mxCell>
        <mxCell id="5eeW4vbxQjaqD8028NrK-5" value="right" style="text;html=1;strokeColor=none;fillColor=none;align=center;verticalAlign=middle;whiteSpace=wrap;rounded=0;" vertex="1" parent="1">
          <mxGeometry x="110" y="260" width="40" height="20" as="geometry" />
        </mxCell>
        <mxCell id="5eeW4vbxQjaqD8028NrK-6" value="" style="rounded=1;whiteSpace=wrap;html=1;" vertex="1" parent="1">
          <mxGeometry x="30" y="290" width="160" height="120" as="geometry" />
        </mxCell>
        <mxCell id="5eeW4vbxQjaqD8028NrK-7" value="ball1" style="ellipse;whiteSpace=wrap;html=1;aspect=fixed;" vertex="1" parent="1">
          <mxGeometry x="40" y="300" width="40" height="40" as="geometry" />
        </mxCell>
        <mxCell id="5eeW4vbxQjaqD8028NrK-8" value="ball2" style="ellipse;whiteSpace=wrap;html=1;aspect=fixed;" vertex="1" parent="1">
          <mxGeometry x="100" y="300" width="40" height="40" as="geometry" />
        </mxCell>
        <mxCell id="5eeW4vbxQjaqD8028NrK-9" value="ball4" style="ellipse;whiteSpace=wrap;html=1;aspect=fixed;" vertex="1" parent="1">
          <mxGeometry x="100" y="350" width="40" height="40" as="geometry" />
        </mxCell>
        <mxCell id="5eeW4vbxQjaqD8028NrK-10" value="ball3" style="ellipse;whiteSpace=wrap;html=1;aspect=fixed;" vertex="1" parent="1">
          <mxGeometry x="40" y="350" width="40" height="40" as="geometry" />
        </mxCell>
        <mxCell id="5eeW4vbxQjaqD8028NrK-11" value="" style="rounded=1;whiteSpace=wrap;html=1;" vertex="1" parent="1">
          <mxGeometry x="220" y="290" width="160" height="120" as="geometry" />
        </mxCell>
        <mxCell id="5eeW4vbxQjaqD8028NrK-12" value="rooma" style="text;html=1;align=center;verticalAlign=middle;resizable=0;points=[];autosize=1;strokeColor=none;" vertex="1" parent="1">
          <mxGeometry x="85" y="420" width="50" height="20" as="geometry" />
        </mxCell>
        <mxCell id="5eeW4vbxQjaqD8028NrK-13" value="roomb" style="text;html=1;align=center;verticalAlign=middle;resizable=0;points=[];autosize=1;strokeColor=none;" vertex="1" parent="1">
          <mxGeometry x="275" y="420" width="50" height="20" as="geometry" />
        </mxCell>
        <mxCell id="5eeW4vbxQjaqD8028NrK-14" value="gripper" style="text;html=1;align=center;verticalAlign=middle;resizable=0;points=[];autosize=1;strokeColor=none;" vertex="1" parent="1">
          <mxGeometry x="80" y="180" width="50" height="20" as="geometry" />
        </mxCell>
      </root>
    </mxGraphModel>
  </diagram>
</mxfile>
